<svg xmlns="http://www.w3.org/2000/svg" viewBox="0 0 800 800">
  <defs>
    <linearGradient id="bg" x1="0" x2="1" y1="0" y2="1">
      <stop offset="0%" stop-color="#0f172a"/>
      <stop offset="100%" stop-color="#06b6d4"/>
    </linearGradient>
  </defs>
  <rect width="800" height="800" rx="48" fill="url(#bg)"/>
  <rect x="240" y="80" width="320" height="640" rx="30" fill="#111827" stroke="#d1d5db" stroke-width="10"/>
  <rect x="266" y="108" width="268" height="584" rx="18" fill="#cffafe"/>
  <circle cx="400" cy="102" r="9" fill="#d1d5db"/>
  <path d="M300 240C360 180 440 180 500 240C440 300 360 300 300 240Z" fill="#22d3ee" opacity="0.45"/>
  <path d="M300 350C360 290 440 290 500 350C440 410 360 410 300 350Z" fill="#0891b2" opacity="0.4"/>
  <path d="M300 460C360 400 440 400 500 460C440 520 360 520 300 460Z" fill="#155e75" opacity="0.4"/>
  <text x="400" y="620" text-anchor="middle" font-family="Arial, sans-serif" font-size="42" fill="#083344">Galaxy S24 Ultra</text>
</svg>
